<svg width="343" height="41" viewBox="0 0 343 41" fill="none" xmlns="http://www.w3.org/2000/svg">
<path d="M286.565 10.175C291.332 10.175 295.182 11.2017 298.115 13.255C301.085 15.2717 302.57 18.37 302.57 22.55H291.955C291.955 19.25 290.159 17.6 286.565 17.6C282.972 17.6 281.175 19.6717 281.175 23.815V26.9501C281.175 31.0567 283.045 33.1101 286.785 33.1101C290.525 33.1101 292.395 31.4234 292.395 28.05H302.57C302.57 32.2667 301.085 35.4017 298.115 37.455C295.182 39.5084 291.332 40.535 286.565 40.535C281.469 40.535 277.472 39.2517 274.575 36.6851C271.679 34.1184 270.23 30.3417 270.23 25.355C270.23 20.3684 271.679 16.5917 274.575 14.025C277.472 11.4584 281.469 10.175 286.565 10.175Z" fill="#d24726"/>
<path d="M256.095 7.425V0H267.04V7.425H256.095ZM256.095 39.875V10.835H267.04V39.875H256.095Z" fill="#d24726"/>
<path d="M240.254 39.875V0H251.199V39.875H240.254Z" fill="#d24726"/>
<path d="M220.675 10.175C225.772 10.175 229.768 11.4767 232.665 14.08C235.598 16.6467 237.065 20.405 237.065 25.355C237.065 30.305 235.598 34.0817 232.665 36.6851C229.768 39.2517 225.772 40.535 220.675 40.535C215.578 40.535 211.582 39.2517 208.685 36.6851C205.788 34.1184 204.34 30.3417 204.34 25.355C204.34 20.3684 205.788 16.5917 208.685 14.025C211.582 11.4584 215.578 10.175 220.675 10.175ZM220.675 17.6C217.082 17.6 215.285 19.6717 215.285 23.815V26.9501C215.285 31.0567 217.082 33.1101 220.675 33.1101C224.305 33.1101 226.12 31.0567 226.12 26.9501V23.815C226.12 19.6717 224.305 17.6 220.675 17.6Z" fill="#d24726"/>
<path d="M182.395 13.86C183.569 12.6867 184.944 11.7883 186.52 11.165C188.097 10.505 189.747 10.175 191.47 10.175C194.844 10.175 197.374 11.11 199.06 12.98C200.747 14.85 201.59 17.545 201.59 21.065V39.875H190.645V22.385C190.645 21.1383 190.315 20.1483 189.655 19.415C189.032 18.645 188.134 18.26 186.96 18.26C185.604 18.26 184.504 18.7 183.66 19.58C182.817 20.46 182.395 21.5417 182.395 22.825V39.875H171.45V0H182.395V13.86Z" fill="#d24726"/>
<path d="M167.141 10.12C167.985 10.12 168.736 10.23 169.396 10.45C170.056 10.6333 170.386 10.7433 170.386 10.78V19.965H166.866C164.593 19.965 162.943 20.5517 161.916 21.725C160.926 22.8983 160.431 24.64 160.431 26.95V39.875H149.486V10.835H158.451L159.166 15.235C159.826 13.5483 160.871 12.2833 162.301 11.44C163.731 10.56 165.345 10.12 167.141 10.12Z" fill="white"/>
<path d="M130.292 10.175C135.609 10.175 139.66 11.4217 142.447 13.915C145.27 16.4084 146.682 20.2217 146.682 25.355V27.225H124.902C124.902 29.315 125.36 30.8917 126.277 31.955C127.23 33.0184 128.715 33.55 130.732 33.55C132.565 33.55 133.904 33.1651 134.747 32.3951C135.627 31.6251 136.067 30.5984 136.067 29.315H146.682C146.682 32.835 145.344 35.585 142.667 37.565C139.99 39.545 136.085 40.535 130.952 40.535C125.562 40.535 121.382 39.2884 118.412 36.795C115.442 34.265 113.957 30.4517 113.957 25.355C113.957 20.3684 115.405 16.5917 118.302 14.025C121.199 11.4584 125.195 10.175 130.292 10.175ZM130.732 17.16C127.285 17.16 125.36 18.7917 124.957 22.055H135.627C135.627 20.5517 135.187 19.36 134.307 18.48C133.464 17.6 132.272 17.16 130.732 17.16Z" fill="white"/>
<path d="M97.9339 10.175C101.821 10.175 105.102 10.945 107.779 12.485C110.492 13.9884 111.849 16.335 111.849 19.525H101.674C101.674 18.4617 101.197 17.71 100.244 17.27C99.5839 16.9034 98.7589 16.72 97.7689 16.72C95.1289 16.72 93.8089 17.3434 93.8089 18.59C93.8089 19.2867 94.2672 19.7817 95.1839 20.075C96.1005 20.3684 97.6039 20.68 99.6939 21.01C102.261 21.3767 104.406 21.8167 106.129 22.33C107.852 22.8067 109.356 23.6867 110.639 24.97C111.922 26.2167 112.564 27.9767 112.564 30.25C112.564 33.9534 111.171 36.5934 108.384 38.17C105.634 39.7467 102.022 40.535 97.5489 40.535C94.9822 40.535 92.5622 40.1867 90.2889 39.4901C88.0155 38.7567 86.1639 37.6384 84.7339 36.135C83.3039 34.6317 82.5889 32.7251 82.5889 30.4151H92.7639V30.635C92.8005 31.8817 93.3139 32.7617 94.3039 33.2751C95.3305 33.7517 96.4122 33.99 97.5489 33.99C100.592 33.99 102.114 33.275 102.114 31.845C102.114 31.1117 101.637 30.58 100.684 30.25C99.7305 29.92 98.1722 29.5717 96.0089 29.205C93.4055 28.765 91.2605 28.2884 89.5739 27.775C87.9239 27.2617 86.4755 26.4 85.2289 25.19C83.9822 23.9434 83.3589 22.22 83.3589 20.02C83.3589 16.4634 84.6972 13.9334 87.3739 12.43C90.0872 10.9267 93.6072 10.175 97.9339 10.175Z" fill="white"/>
<path d="M64.9346 10.175C70.0313 10.175 74.0279 11.4767 76.9246 14.08C79.8579 16.6467 81.3246 20.405 81.3246 25.355C81.3246 30.305 79.8579 34.0817 76.9246 36.6851C74.0279 39.2517 70.0313 40.535 64.9346 40.535C59.8379 40.535 55.8413 39.2517 52.9446 36.6851C50.0479 34.1184 48.5996 30.3417 48.5996 25.355C48.5996 20.3684 50.0479 16.5917 52.9446 14.025C55.8413 11.4584 59.8379 10.175 64.9346 10.175ZM64.9346 17.6C61.3413 17.6 59.5446 19.6717 59.5446 23.815V26.9501C59.5446 31.0567 61.3413 33.1101 64.9346 33.1101C68.5646 33.1101 70.3796 31.0567 70.3796 26.9501V23.815C70.3796 19.6717 68.5646 17.6 64.9346 17.6Z" fill="white"/>
<path d="M34.4639 39.875V0H45.4089V39.875H34.4639Z" fill="white"/>
<path d="M16.335 10.175C21.1017 10.175 24.9517 11.2017 27.885 13.255C30.855 15.2717 32.34 18.37 32.34 22.55H21.725C21.725 19.25 19.9283 17.6 16.335 17.6C12.7417 17.6 10.945 19.6717 10.945 23.815V26.9501C10.945 31.0567 12.815 33.1101 16.555 33.1101C20.295 33.1101 22.165 31.4234 22.165 28.05H32.34C32.34 32.2667 30.855 35.4017 27.885 37.455C24.9517 39.5084 21.1017 40.535 16.335 40.535C11.2383 40.535 7.24167 39.2517 4.345 36.6851C1.44833 34.1184 0 30.3417 0 25.355C0 20.3684 1.44833 16.5917 4.345 14.025C7.24167 11.4584 11.2383 10.175 16.335 10.175Z" fill="white"/>
<path d="M333.52 21.875C335.059 21.875 336.475 22.2598 337.77 23.0293C339.064 23.7989 340.096 24.8308 340.865 26.125C341.635 27.4192 342.02 28.8359 342.02 30.375C342.02 31.9141 341.635 33.3308 340.865 34.625C340.096 35.9192 339.064 36.9511 337.77 37.7207C336.475 38.4902 335.059 38.875 333.52 38.875C331.98 38.875 330.564 38.4902 329.27 37.7207C327.975 36.9511 326.943 35.9192 326.174 34.625C325.404 33.3308 325.02 31.9141 325.02 30.375C325.02 28.8359 325.404 27.4192 326.174 26.125C326.943 24.8308 327.975 23.7989 329.27 23.0293C330.564 22.2598 331.98 21.875 333.52 21.875Z" fill="white"/>
</svg>
